<?xml version="1.0" standalone="no"?>
<!DOCTYPE svg PUBLIC "-//W3C//DTD SVG 1.1//EN" "http://www.w3.org/Graphics/SVG/1.1/DTD/svg11.dtd" >
<!--
2013-9-30: Created.
-->
<svg>
<metadata>
Created by iconfont
</metadata>
<defs>

<font id="iconfont" horiz-adv-x="1024" >
  <font-face
    font-family="iconfont"
    font-weight="500"
    font-stretch="normal"
    units-per-em="1024"
    ascent="896"
    descent="-128"
  />
    <missing-glyph />
    
    <glyph glyph-name="shouji1" unicode="&#58920;" d="M629.5552 628.5824H394.4448a39.3216 39.3216 0 0 1-39.168-39.424c0-21.8112 17.5104-39.424 39.168-39.424h235.1104a39.3216 39.3216 0 0 1 39.168 39.424 39.3216 39.3216 0 0 1-39.168 39.424z m143.6672 157.696H250.7776c-57.7536 0-104.448-47.0016-104.448-105.1136v-630.8864c0-58.112 46.6944-105.1136 104.448-105.1136h522.4448c57.7536 0 104.448 47.0016 104.448 105.1136V681.1648a104.7552 104.7552 0 0 1-104.448 105.1136z m26.112-709.6832c0-29.0304-23.3984-52.5824-52.224-52.5824H276.8896c-28.8256 0-52.224 23.552-52.224 52.5824V654.848c0 29.0304 23.3984 52.5824 52.224 52.5824h470.2208c28.8256 0 52.224-23.552 52.224-52.5824v-578.2528zM512 181.7088c-28.8256 0-52.224-23.552-52.224-52.5824 0-28.9792 23.3984-52.5312 52.224-52.5312s52.224 23.552 52.224 52.5312c0 29.0304-23.3984 52.5824-52.224 52.5824z"  horiz-adv-x="1024" />

    
    <glyph glyph-name="juxingbeifen2" unicode="&#58919;" d="M515.306057 770.479543c215.266743 0 389.778286-174.518857 389.778286-389.778286 0-215.274057-174.511543-389.778286-389.778286-389.778286-215.274057 0-389.778286 174.504229-389.778286 389.778286 0 215.259429 174.504229 389.778286 389.778286 389.778286z m0-730.843429a339.456 339.456 0 0 1 181.306514 52.136229l-86.784 86.966857 55.537372 194.647771 28.013714 13.889829-31.912228 32.1536V493.246171l141.5168 70.656a340.970057 340.970057 0 0 1-73.055086 81.854172l-137.647543-45.809372H495.323429l-23.800686 119.025372a339.338971 339.338971 0 0 1-48.128-9.742629l69.741714-209.649371-65.287314-108.895086 81.115428-40.440686 58.4704-116.692114-95.985371-160.0512-151.04 151.04v70.890057l-81.115429 60.906057H175.104c12.485486-176.991086 160.029257-316.701257 340.202057-316.701257z m310.813257 481.470172l-115.931428-58.068115v-23.625142l65.536-65.294629-69.4272-34.837943-41.903543-146.410057 72.0384-71.840914c73.391543 62.551771 119.932343 155.677257 119.932343 259.664457 0 48.888686-10.496 96.694857-30.244572 140.412343zM175.104 405.065143l80.266971-0.007314 113.7664-85.262629V244.516571l92.5696-92.5696 50.183315 83.5584-38.977829 78.197029-113.7664 57.007543L440.027429 505.417143l-62.588343 187.318857C264.791771 642.896457 184.195657 533.855086 175.104 405.065143z m345.570743 316.650057l14.606628-73.047771h49.210515l94.134857 31.4368a341.0432 341.0432 0 0 1-157.952 41.610971z"  horiz-adv-x="1024" />

    
    <glyph glyph-name="juxingbeifen1" unicode="&#58918;" d="M513.806629 323.357257c84.282514 0 152.853943 68.461714 152.853942 152.605257 0 84.150857-68.571429 152.590629-152.853942 152.590629-84.260571 0-152.832-68.432457-152.832-152.583314s68.578743-152.612571 152.832-152.612572z m0 261.610057c60.196571 0 109.173029-48.881371 109.173028-109.0048 0-60.1088-48.976457-109.019429-109.173028-109.019428-60.2112 0-109.173029 48.910629-109.173029 109.026743 0 60.116114 48.961829 108.997486 109.173029 108.997485z m210.176-285.995885c47.030857 55.610514 72.477257 130.004114 62.968685 210.197942-14.811429 125.418057-116.0192 225.7408-241.685943 239.740343C379.509029 767.3344 238.665143 637.761829 238.665143 475.962514c0-68.373943 25.234286-130.962286 66.794057-179.068343l-86.345143-156.832914c-3.218286-5.800229 1.024-12.909714 7.658057-12.909714h101.361372c5.866057 0 11.337143-2.954971 14.555428-7.855543l59.743086-91.384686a8.769829 8.769829 0 0 1 14.921143 0.402286l97.938286 170.510629 97.982171-170.488686a8.704 8.704 0 0 1 14.855314-0.424229l59.8016 91.384686a17.408 17.408 0 0 0 14.511543 7.855543H803.84c6.641371 0 10.832457 7.109486 7.672686 12.909714L723.982629 298.971429zM483.576686 705.111771c151.237486 19.265829 279.018057-108.324571 259.774171-259.342628-13.173029-103.109486-96.0512-185.856-199.314286-198.977829-151.259429-19.221943-279.010743 108.368457-259.766857 259.335315 13.180343 103.1168 96 185.856 199.314286 198.985142z m-79.557486-599.895771l-37.6832 57.673143a17.364114 17.364114 0 0 1-14.555429 7.855543h-56.5248a5.558857 5.558857 0 0 0-4.871314 8.228571l47.418514 86.089143a274.176 274.176 0 0 1 130.720915-60.021029l-57.219657-99.605942a4.271543 4.271543 0 0 0-7.277715-0.219429h-0.007314z m260.271543 57.673143l-37.727086-57.680457a4.220343 4.220343 0 0 0-7.226514 0.226743l-57.519543 100.132571a274.3296 274.3296 0 0 1 130.048 61.2352l49.444571-89.775543a4.227657 4.227657 0 0 0-3.7376-6.282971h-58.704457c-5.880686 0-11.359086-2.947657-14.570057-7.862857z"  horiz-adv-x="1024" />

    
    <glyph glyph-name="juxingbeifen" unicode="&#58917;" d="M282.097371 681.0624c8.674743 46.248229 53.343086 76.8 99.562058 68.125257l316.379428-59.435886c0.680229-0.124343 1.353143-0.292571 2.033372-0.438857a84.655543 84.655543 0 0 0 47.901257-24.093257 84.794514 84.794514 0 0 0 24.978285-60.342857c0-22.791314-8.872229-44.214857-24.978285-60.335543L591.864686 388.352a129.082514 129.082514 0 0 0 38.853485-92.379429v-166.9632h6.239086a21.262629 21.262629 0 0 0 21.255314-21.262628v-64.526629a21.262629 21.262629 0 0 0-21.255314-21.262628H348.181943a21.262629 21.262629 0 0 0-21.255314 21.262628v64.526629a21.262629 21.262629 0 0 0 21.255314 21.262628h6.239086V295.965257c0 26.068114 7.745829 50.351543 21.0432 70.685257-3.093943 25.205029 4.981029 51.521829 24.276114 70.824229l113.320228 113.386057-152.283428 28.598857a56.9344 56.9344 0 0 0-31.8464-32.789943v-26.638628a21.255314 21.255314 0 1 0-42.510629 0V546.669714c-20.714057 8.426057-35.371886 28.781714-35.371885 52.509257a56.722286 56.722286 0 0 0 31.012571 50.505143 85.357714 85.357714 0 0 0 0.036571 31.378286z m333.604572-594.578286h-246.272v-22.001371h246.272v21.994057z m-53.884343 271.798857l-41.472-41.486628a84.699429 84.699429 0 0 0-60.298971-24.992914 84.699429 84.699429 0 0 0-60.306286 24.992914l-0.219429 0.234057a86.893714 86.893714 0 0 1-2.596571-21.065143v-166.955886H588.214857V295.965257a86.674286 86.674286 0 0 1-26.389943 62.317714zM461.019429 194.282057c11.834514 0 21.438171-9.925486 21.438171-22.162286 0-12.2368-9.603657-22.147657-21.438171-22.147657h-26.053486c-11.849143 0-21.438171 9.910857-21.438172 22.154972 0 12.229486 9.596343 22.162286 21.438172 22.162285z m0 59.0848c11.834514 0 21.438171-9.918171 21.438171-22.162286 0-12.229486-9.603657-22.147657-21.438171-22.147657h-26.053486c-11.849143 0-21.438171 9.918171-21.438172 22.154972 0 12.2368 9.596343 22.154971 21.438172 22.154971z m226.647771 394.313143a42.481371 42.481371 0 0 1-30.251886-12.536686L429.794743 407.405714a42.869029 42.869029 0 0 1 0-60.525714 42.481371 42.481371 0 0 1 30.251886-12.536686 42.481371 42.481371 0 0 1 30.244571 12.536686l227.620571 227.744914a42.525257 42.525257 0 0 1 12.536686 30.266515 42.539886 42.539886 0 0 1-12.529371 30.2592 42.496 42.496 0 0 1-30.251886 12.544zM460.302629 401.086171a22.162286 22.162286 0 1 0 0-44.324571 22.162286 22.162286 0 0 0 0 44.324571z m226.494171 221.564343a22.154971 22.154971 0 1 0 0-44.309943 22.154971 22.154971 0 0 0 0 44.309943z m-386.706286-11.563885a14.1312 14.1312 0 0 1 7.584915-26.038858 14.116571 14.116571 0 0 1 12.741485 8.074972 84.538514 84.538514 0 0 0-20.3264 17.963886z m214.2208 69.909942l-15.791543-84.128914 50.951315-9.567086 73.289143 73.325715-108.448915 20.370285z m-148.406857 27.136a42.861714 42.861714 0 0 1-42.027886-34.911085 42.539886 42.539886 0 0 1 6.729143-32.058515 42.496 42.496 0 0 1 27.421257-17.898057l98.7136-18.549028 15.791543 84.136228-98.720914 18.5344a42.642286 42.642286 0 0 1-7.906743 0.746057z"  horiz-adv-x="1024" />

    
    <glyph glyph-name="juxing1" unicode="&#58916;" d="M822.286629 663.573943a49.781029 49.781029 0 0 1-37.258972 13.121828c-0.702171-0.0512-8.667429-0.512-21.1456-0.512-20.662857 0-61.001143 1.389714-99.210971 10.715429-49.349486 12.039314-106.313143 67.854629-122.894629 78.877257a49.985829 49.985829 0 0 1-55.135086 0.021943c-2.011429-1.345829-61.637486-64.680229-119.983542-78.8992-38.1952-9.325714-79.301486-10.722743-99.949715-10.722743-12.478171 0-20.443429 0.490057-21.226057 0.541257a49.985829 49.985829 0 0 1-37.207771-13.180343 49.034971 49.034971 0 0 1-15.740343-35.964342v-123.172572c0-455.387429 300.141714-514.040686 312.890514-516.315428 2.911086-0.512 5.829486-0.760686 8.769829-0.760686a49.590857 49.590857 0 0 1 8.777143 0.768c12.7488 2.289371 315.092114 60.928 315.092114 516.308114V627.565714a49.115429 49.115429 0 0 1-15.776914 36.000915z m-33.8432-159.188114c0-419.415771-274.249143-467.821714-274.249143-467.821715s-272.040229 48.405943-272.040229 467.821715v123.172571s9.376914-0.650971 24.576-0.650971c26.0096 0 69.800229 1.901714 111.762286 12.149028C447.195429 655.798857 514.194286 724.809143 514.194286 724.809143s69.975771-69.024914 138.620343-85.752686c42.013257-10.254629 85.035886-12.141714 111.082057-12.141714 15.1552 0 24.561371 0.643657 24.561371 0.643657l-0.014628-123.179886z m-119.983543 25.526857l-192.212115-190.829715-95.341714 94.6688a30.478629 30.478629 0 0 1-42.869028 0 29.944686 29.944686 0 0 1 0-42.569142L449.243429 280.766171a30.273829 30.273829 0 0 1 27.004342-15.067428c11.081143-0.292571 21.438171 5.485714 27.011658 15.067428L711.343543 487.350857a29.944686 29.944686 0 0 1 0 42.569143 30.442057 30.442057 0 0 1-42.883657 0z"  horiz-adv-x="1024" />

    
    <glyph glyph-name="juxing" unicode="&#58915;" d="M512 822.86592c-181.8624 0-329.13408-147.21024-329.13408-328.64256 0-37.6832 6.38976-73.85088 18.0224-107.58144v-0.49152l0.49152-0.98304c5.59104-15.72864 12.30848-30.96576 20.00896-45.52704l0.16384-0.32768 0.16384-0.32768c3.13344-5.7344 6.41024-11.4688 9.8304-17.03936l0.34816-0.49152 0.16384-0.32768 217.94816-376.9344c27.5456-47.49312 96.256-47.49312 123.65824 0L792.576 322.27328l0.98304 1.47456 7.0656 12.288c0.32768 0.49152 0.65536 0.98304 0.8192 1.47456l0.16384 0.49152 0.16384 0.32768a344.064 344.064 0 0 1 20.82816 47.0016l0.49152 0.98304v0.32768a329.1136 329.1136 0 0 1 18.0224 107.58144c0 181.43232-147.41504 328.64256-329.13408 328.64256z m0-474.7264c-86.4256 0-156.28288 69.9392-156.28288 156.0576 0 86.13888 70.02112 156.0576 156.28288 156.0576s156.28288-69.91872 156.28288-156.0576c0-86.1184-70.02112-156.0576-156.28288-156.0576z"  horiz-adv-x="1024" />

    
    <glyph glyph-name="shijian" unicode="&#58913;" d="M620.5696 403.328c10.5216 0 18.944-8.448 18.944-19.328a19.2 19.2 0 0 0-18.944-19.328h-106.3936l-69.7856-120.32a11.008 11.008 0 0 0-15.4624-4.3008 11.136 11.136 0 0 0-4.352 15.5392l69.7856 120.96c-0.7936 2.304-1.664 4.7616-1.664 7.4496v156.0576a19.1488 19.1488 0 0 0 38.2976 0v-136.7296h89.6zM882.2272 363.9808h-58.112a20.3008 20.3008 0 0 0-20.3264 20.224c0 10.8288 9.0624 19.5584 20.3264 19.5584h78.848c33.536 0 47.2576-6.144 46.2848-37.632a443.1104 443.1104 0 0 0-33.0752-149.4272l-0.8704-1.6896a441.3184 441.3184 0 0 0-94.0544-140.4672A434.3808 434.3808 0 0 0 512-53.3504c-59.264 0-115.7632 11.4944-167.3728 33.408l-1.6896 0.64a435.3024 435.3024 0 0 0-140.2624 93.8496 435.712 435.712 0 0 0-128 309.6576c0 57.2416 11.264 113.92 33.1008 166.8352l0.9472 2.1248a430.592 430.592 0 0 0 93.952 140.032 426.4192 426.4192 0 0 0 141.952 94.8992 434.0736 434.0736 0 0 0 167.3728 33.2032c58.9568 0 115.6864-11.6992 167.168-33.2032l1.92-0.64a448.768 448.768 0 0 0 78.848-43.1872l-2.1248 42.1376a32.9216 32.9216 0 0 0 31.3856 34.8928 33.4592 33.4592 0 0 0 34.8928-31.2832l6.6048-115.968c1.1776-10.24-1.792-20.4288-9.472-27.904-6.8096-6.5792-15.104-10.1888-24.064-9.5488l-116.0704-7.2448c-18.176-0.64-34.048 13.824-35.0208 31.7184a33.408 33.408 0 0 0 31.744 34.8928l32 1.92a371.0208 371.0208 0 0 1-54.272 28.288l-1.8944 0.4352a357.6832 357.6832 0 0 1-121.856 27.4432v-58.2912a19.8144 19.8144 0 0 0-19.7888-20.0192 20.352 20.352 0 0 0-20.096 20.0192V754.048a357.0432 357.0432 0 0 1-121.6256-27.4432 196.0192 196.0192 0 0 1-26.368-12.1344l10.2912-17.4592c5.76-9.5744 1.92-21.6832-7.0144-27.4432a20.5568 20.5568 0 0 0-27.4688 8.0896l-10.2912 17.2288a388.1472 388.1472 0 0 1-59.7248-48.7168 363.1872 363.1872 0 0 1-48.384-59.8016l17.4336-10.0096a20.224 20.224 0 0 0 7.3472-27.2384 19.7632 19.7632 0 0 0-27.2384-7.2448l-17.664 10.6496c-4.0448-8.2944-7.7824-16.5888-11.5968-25.3184l-0.64-1.4848a384.7168 384.7168 0 0 1-27.4688-121.9584h58.8544a19.5328 19.5328 0 0 0 19.584-19.5584c0-11.0848-8.704-20.224-19.584-20.224H141.5168c3.072-52.992 16.8192-103.0144 39.68-148.1216l17.4848 10.6496a20.4032 20.4032 0 0 0 27.4432-7.4496 19.8144 19.8144 0 0 0-7.3472-27.0336l-17.4592-10.4192a371.968 371.968 0 0 1 48.4352-59.8016 351.744 351.744 0 0 1 59.6992-48.7424l10.2912 17.8688a20.1472 20.1472 0 0 0 27.4688 6.8096c8.96-5.12 12.7744-17.4336 7.0144-26.368l-10.3168-18.5344c7.9872-3.84 16.4864-7.424 24.8064-11.264l1.5872-0.4352c37.5552-15.104 78.9504-25.3184 121.6-27.4432v58.2912c0 11.2896 9.2672 20.0192 20.1216 20.0192 11.264 0 19.8144-8.704 19.8144-20.0192v-58.2912c53.4016 2.56 103.1936 16.5888 147.9936 39.5776l-10.112 18.0992a19.2 19.2 0 0 0 7.5776 26.368c9.472 5.5552 21.6832 2.56 26.88-6.8096l10.1376-17.8688c21.504 14.2592 41.8048 30.208 59.8016 48.7424a400.2816 400.2816 0 0 1 49.0496 59.8016l-17.8944 10.4192a19.3536 19.3536 0 0 0-7.3216 26.8288 20.6592 20.6592 0 0 0 27.136 7.6544l17.4336-10.6496c4.2752 8.5248 8.0896 16.384 11.5968 24.9088l0.768 1.4848a368.5632 368.5632 0 0 1 27.3408 121.728z"  horiz-adv-x="1024" />

    
    <glyph glyph-name="zhuanshi" unicode="&#58914;" d="M512-51.2a38.912 38.912 0 0 0-29.312 13.312L60.928 444.4928a39.3728 39.3728 0 0 0-5.2736 44.032L216.7552 798.1568A38.9888 38.9888 0 0 0 251.3152 819.2h521.3696c14.5152 0 27.8528-8.1152 34.56-21.0432l161.1264-309.632c7.4496-14.3616 5.376-31.872-5.2736-44.032L541.2864-37.8624c-7.3984-8.4736-18.0736-13.3376-29.2864-13.3376zM137.1648 476.032L512 47.36l374.8352 428.6464L749.056 740.7872H274.944L137.1648 476.032zM491.1872 188.544l-177.024 199.3216a28.672 28.672 0 0 0 2.2272 39.7824 27.5712 27.5712 0 0 0 39.168-1.792l156.3392-176 156.3136 176a27.5712 27.5712 0 0 0 39.3984 2.048c11.4176-10.496 12.3136-28.416 1.9968-40.0384l-177.024-199.3216a27.6736 27.6736 0 0 0-41.3952 0z"  horiz-adv-x="1024" />

    
    <glyph glyph-name="fuwu" unicode="&#58912;" d="M645.12 431.7952C689.4848 469.3248 716.8 527.36 716.8 588.8c0 112.64-92.16 204.8-204.8 204.8s-204.8-92.16-204.8-204.8 92.16-204.8 204.8-204.8c204.8 0 358.4-139.9552 375.4752-341.3248H136.5248c10.24 150.1696 88.7552 262.8096 215.04 310.6048 17.0752 6.8352 27.3152 27.3152 20.48 44.3648-6.8096 17.0752-27.2896 27.3152-44.3648 20.48-163.84-64.8448-259.4048-211.6096-259.4048-409.6C68.2752-11.9552 81.92-25.6 102.4-25.6h819.2c20.48 0 34.1248 13.6448 34.1248 34.1248 0 204.8-126.2848 372.0704-310.6048 423.2704zM375.4752 588.8c0 75.0848 61.44 136.5248 136.5248 136.5248 75.0848 0 136.5248-61.44 136.5248-136.5248 0-75.0848-61.44-136.5248-136.5248-136.5248-75.0848 0-136.5248 61.44-136.5248 136.5248zM512 76.8c10.24 0 17.0752 3.4048 23.8848 10.24l68.2752 68.2752c6.8352 6.8096 10.24 20.48 10.24 30.72L580.2752 322.56c-3.4304 13.6448-17.0752 27.3152-34.1504 27.3152h-68.2496c-17.0752 0-30.72-10.24-34.1504-27.3152L409.6 186.0352c-3.4048-10.24 0-23.9104 10.24-30.72l68.2752-68.2752c6.8096-6.8352 13.6448-10.24 23.8848-10.24z m-6.8352 204.8h13.6704l23.8848-92.16-30.72-30.72-30.72 30.72 23.8848 92.16z"  horiz-adv-x="1024" />

    
    <glyph glyph-name="phone" unicode="&#58902;" d="M638.171429-54.857143c32.914286 0 63.085714 7.68 89.709714 22.930286 28.489143 16.274286 50.688 41.325714 69.485714 70.144l5.302857 9.654857c28.379429 51.931429-3.510857 134.144-81.188571 195.291429-42.313143 33.353143-89.088 52.443429-128.365714 52.443428-29.184 0-52.809143-10.715429-67.145143-30.281143-3.035429-2.011429-8.155429-4.608-12.361143-4.608-1.206857 0-3.693714 0-7.424 4.242286a18.870857 18.870857 0 0 0-0.731429 0.768 774.948571 774.948571 0 0 0-103.68 180.918857c-1.755429 9.654857-0.438857 14.445714 0.658286 15.798857 0.768 0.987429 3.145143 1.609143 3.145143 1.609143 21.394286 0.512 40.521143 10.130286 55.734857 27.830857 28.635429 33.316571 40.813714 91.904 32.548571 156.708572C481.206857 747.958857 426.715429 822.857143 367.104 822.857143h-1.682286c-2.816-0.073143-5.595429-0.365714-8.301714-0.768-36.571429 1.609143-70.253714-5.997714-99.510857-22.710857-135.424-77.385143-138.24-320.512-6.509714-553.581715C352.768 65.974857 508.342857-54.857143 638.171429-54.857143z m-45.056 301.092572c27.977143 0 64.548571-15.652571 97.828571-41.837715 58.038857-45.714286 83.675429-105.764571 70.582857-130.304-2.011429-3.766857-3.437714-6.144-4.534857-8.045714-13.019429-22.564571-32.548571-43.081143-53.577143-55.113143-19.090286-10.898286-41.033143-16.457143-65.243428-16.457143-110.811429 0-252.342857 113.371429-344.064 275.638857-114.285714 202.093714-119.771429 424.813714-11.995429 486.4 21.613714 12.324571 47.140571 17.773714 75.008 16.091429 2.048-0.109714 4.096 0.036571 6.107429 0.402286a21.028571 21.028571 0 0 0 3.401142 0.475428c29.330286 0 68.717714-56.064 78.262858-131.145143 6.326857-49.627429-1.938286-96.036571-21.028572-118.272-8.923429-10.386286-16.530286-10.569143-19.017143-10.605714-2.157714 0-25.234286-0.731429-40.813714-19.931428-11.849143-14.628571-15.286857-34.486857-10.24-58.88 0.292571-1.462857 0.731429-2.889143 1.243429-4.242286a827.355429 827.355429 0 0 1 113.152-197.193143 25.197714 25.197714 0 0 1 3.547428-3.730286c11.702857-11.885714 26.075429-18.139429 41.874286-18.139428 25.088 0 44.544 16.201143 46.665143 18.066285a24.612571 24.612571 0 0 1 4.754285 5.595429c5.851429 9.289143 18.468571 11.227429 28.086858 11.227429z m77.897142 166.253714c11.776 0 22.235429 8.411429 24.429715 20.48a86.052571 86.052571 0 0 1-13.897143 64.768c-13.165714 19.017143-32.914286 31.817143-55.661714 35.986286a24.905143 24.905143 0 1 1-8.96-49.005715 36.534857 36.534857 0 0 0 23.625142-15.286857c5.595429-8.045714 7.68-17.846857 5.924572-27.501714a24.868571 24.868571 0 0 1 24.502857-29.44z m84.114286 1.828571a24.868571 24.868571 0 0 1 24.502857 20.406857 152.283429 152.283429 0 0 1-122.221714 177.078858 24.941714 24.941714 0 0 1-8.96-49.005715 102.4 102.4 0 0 0 82.176-119.076571 24.868571 24.868571 0 0 1 24.502857-29.403429z m96.438857-27.209143c11.812571 0 22.308571 8.411429 24.502857 20.406858a259.474286 259.474286 0 0 1-41.984 195.510857 259.510857 259.510857 0 0 1-167.862857 108.580571 24.941714 24.941714 0 0 1-8.996571-49.005714 210.066286 210.066286 0 0 0 135.862857-87.881143 210.139429 210.139429 0 0 0 33.974857-158.208 24.905143 24.905143 0 0 1 24.502857-29.403429z"  horiz-adv-x="1024" />

    
    <glyph glyph-name="shenhe" unicode="&#58903;" d="M697.6 742.4c65.706667 0 117.333333-51.626667 117.333333-117.333333v-469.333334c0-65.706667-51.626667-117.333333-117.333333-117.333333h-375.466667c-65.706667 0-117.333333 51.626667-117.333333 117.333333v375.466667L411.306667 742.4h286.293333z m0-46.933333H439.466667v-103.253334c0-46.933333-37.546667-84.48-84.48-84.48h-103.253334v-352c0-37.546667 32.853333-70.4 70.4-70.4h375.466667c37.546667 0 70.4 32.853333 70.4 70.4v469.333334c0 37.546667-32.853333 70.4-70.4 70.4z m-28.16-211.2c9.386667-9.386667 9.386667-23.466667 0-32.853334L472.32 254.293333c-4.232533-4.215467-8.448-8.448-16.093867-9.250133l-2.679466-0.136533c-4.693333 0-14.08 0-18.773334 4.693333l-0.5632 0.597333-1.092266 1.211734a25.1904 25.1904 0 0 0-0.0512 0.068266l-92.16 101.376a22.698667 22.698667 0 0 0 0 32.853334 22.698667 22.698667 0 0 0 32.853333 0l82.141867-82.141867L636.586667 484.283733a22.698667 22.698667 0 0 0 32.853333 0zM392.533333 656.930133L292.898133 554.666667H354.986667c23.466667 0 37.546667 18.773333 37.546666 37.546666v64.7168z"  horiz-adv-x="1024" />

    
    <glyph glyph-name="shouji" unicode="&#58904;" d="M629.540571 628.553143h-235.081142c-21.650286 0-39.204571-17.627429-39.204572-39.424 0-21.76 17.554286-39.424 39.204572-39.424h235.081142c21.650286 0 39.204571 17.664 39.204572 39.424 0 21.796571-17.554286 39.460571-39.204572 39.460571zM773.229714 786.285714H250.770286A104.777143 104.777143 0 0 1 146.285714 681.142857v-630.857143A104.777143 104.777143 0 0 1 250.770286-54.857143h522.459428A104.777143 104.777143 0 0 1 877.714286 50.285714V681.142857A104.777143 104.777143 0 0 1 773.229714 786.285714z m26.112-709.705143c0-29.001143-23.405714-52.589714-52.224-52.589714H276.845714a52.443429 52.443429 0 0 0-52.224 52.589714V654.848c0 29.001143 23.405714 52.589714 52.224 52.589714H747.154286c28.818286 0 52.224-23.588571 52.224-52.589714v-578.267429zM512 181.723429c-28.818286 0-52.260571-23.588571-52.260571-52.589715 0-29.001143 23.405714-52.553143 52.260571-52.553143 28.818286 0 52.260571 23.552 52.260571 52.553143S540.854857 181.76 512 181.76z"  horiz-adv-x="1024" />

    
    <glyph glyph-name="shoujibeifen" unicode="&#58905;" d="M885.906286 316.781714c4.132571 22.674286 6.363429 45.897143 6.363428 69.083429a378.88 378.88 0 0 1-29.878857 148.224 379.245714 379.245714 0 0 1-81.481143 121.124571 377.929143 377.929143 0 0 1-120.795428 81.554286 376.649143 376.649143 0 0 1-147.858286 29.988571c-24.137143 0-48.384-2.340571-71.936-6.875428A225.974857 225.974857 0 0 1 334.628571 786.285714a223.268571 223.268571 0 0 1-159.012571-66.048A224.402286 224.402286 0 0 1 109.714286 560.786286c0-38.290286 9.874286-75.995429 28.269714-109.275429-3.730286-21.577143-5.741714-43.666286-5.741714-65.645714 0-51.419429 10.057143-101.339429 29.878857-148.224a378.989714 378.989714 0 0 1 81.371428-121.124572 377.929143 377.929143 0 0 1 120.795429-81.554285 377.6 377.6 0 0 1 214.454857-23.990857c33.682286-19.090286 71.68-29.257143 110.628572-29.257143 60.050286 0 116.589714 23.405714 159.012571 66.048A223.963429 223.963429 0 0 1 914.285714 207.213714a224.731429 224.731429 0 0 1-28.379428 109.568z m-88.612572-217.782857a150.528 150.528 0 0 0-107.812571-44.8 152.137143 152.137143 0 0 0-75.044572 19.894857l-22.637714 12.8-25.6-4.534857a304.384 304.384 0 0 0-173.714286 19.456 305.371429 305.371429 0 0 0-97.792 66.048 306.870857 306.870857 0 0 0-90.038857 217.892572c0 17.554286 1.609143 35.474286 4.644572 53.248l4.388571 25.307428-12.434286 22.491429a152.576 152.576 0 0 0-19.2 74.020571c0 40.96 15.762286 79.140571 44.617143 108.105143A151.369143 151.369143 0 0 0 334.628571 713.691429a153.6 153.6 0 0 0 71.826286-18.066286l22.528-11.885714 24.941714 4.827428c19.017143 3.657143 38.619429 5.558857 58.331429 5.558857 41.654857 0 81.773714-8.155429 119.698286-24.210285a305.371429 305.371429 0 0 0 97.755428-66.048 305.956571 305.956571 0 0 0 65.974857-98.011429c16.091429-38.034286 24.137143-78.262857 24.137143-119.990857 0-18.541714-1.682286-37.302857-5.12-55.954286l-4.754285-25.709714 12.690285-22.784c12.690286-22.674286 19.309714-48.420571 19.309715-74.349714a151.552 151.552 0 0 0-44.617143-108.068572z m-213.430857 331.117714l-88.905143 19.748572c-33.792 7.789714-72.740571 17.993143-72.740571 49.956571 0 31.963429 27.282286 54.345143 76.544 54.345143 99.291429 0 90.221714-68.388571 139.52-68.388571 25.965714 0 48.676571 15.36 48.676571 41.545143 0 61.330286-97.974857 107.410286-181.028571 107.410285-90.221714 0-186.294857-38.4-186.294857-140.653714 0-49.225143 17.517714-101.668571 114.249143-125.952l120.100571-30.061714c36.315429-8.96 45.458286-29.44 45.458286-47.981715 0-30.756571-30.464-60.818286-85.686857-60.818285-107.812571 0-92.818286 83.2-150.564572 83.2-25.965714 0-44.763429-17.956571-44.763428-43.483429 0-49.810286 60.342857-116.333714 195.328-116.333714 128.438857 0 192.109714 61.988571 192.109714 145.188571 0 53.540571-24.649143 110.518857-122.002286 132.278857z"  horiz-adv-x="1024" />

    
    <glyph glyph-name="shousuo" unicode="&#58906;" d="M760.649143 689.115429c134.070857-134.070857 142.262857-346.404571 24.576-490.057143l170.825143-170.788572-51.712-51.748571-170.825143 170.788571c-143.652571-117.686857-355.986286-109.458286-490.057143 24.612572-142.811429 142.811429-142.811429 374.381714 0 517.193143 142.811429 142.811429 374.381714 142.811429 517.193143 0zM295.168 637.44a292.571429 292.571429 0 1 1 413.769143-413.769143A292.571429 292.571429 0 0 1 295.131429 637.44z"  horiz-adv-x="1024" />

    
    <glyph glyph-name="success" unicode="&#58907;" d="M108.324571 402.614857a36.571429 36.571429 0 0 1-47.652571-55.515428l286.829714-246.235429a36.571429 36.571429 0 0 1 49.554286 1.792l590.884571 585.142857a36.571429 36.571429 0 1 1-51.456 51.931429l-566.930285-561.371429-261.229715 224.256z"  horiz-adv-x="1024" />

    
    <glyph glyph-name="tianjia" unicode="&#58908;" d="M512 786.285714C289.828571 786.285714 109.714286 606.171429 109.714286 384s180.114286-402.285714 402.285714-402.285714 402.285714 180.114286 402.285714 402.285714S734.171429 786.285714 512 786.285714z m49.92-651.446857l-92.306286-0.256-0.621714 203.117714-203.117714-0.621714-0.292572 92.306286 203.117715 0.621714-0.621715 203.117714 92.342857 0.292572 0.621715-203.117714 203.117714 0.621714 0.256-92.342857-203.117714-0.621715 0.621714-203.117714z"  horiz-adv-x="1024" />

    
    <glyph glyph-name="touxiang" unicode="&#58909;" d="M512 316.416c241.92 0 438.857143-182.125714 438.857143-407.844571h-79.798857c0 181.906286-160.292571 330.166857-359.058286 330.166857S152.941714 90.477714 152.941714-91.428571H73.142857c0 225.718857 196.937143 407.844571 438.857143 407.844571zM512 859.428571c132.205714 0 239.36-104.338286 239.36-233.069714s-107.154286-233.069714-239.36-233.069714c-132.205714 0-239.36 104.374857-239.36 233.069714C272.64 755.090286 379.794286 859.428571 512 859.428571z m0-77.677714c-88.137143 0-159.597714-69.558857-159.597714-155.392 0-85.796571 71.460571-155.355429 159.597714-155.355428s159.597714 69.558857 159.597714 155.355428c0 85.833143-71.460571 155.392-159.597714 155.392z"  horiz-adv-x="1024" />

    
    <glyph glyph-name="xiaoxi" unicode="&#58910;" d="M265.069714 151.003429v0.073142a95.780571 95.780571 0 0 0-95.268571 96.073143V487.862857H150.308571c-26.550857 0-40.630857-21.796571-40.630857-48.713143v-282.331428c0-26.916571 23.003429-55.552 49.554286-55.552h43.958857l-20.845714-78.043429s-2.084571-4.388571 2.048-4.864c5.266286-0.658286 15.798857 4.937143 15.798857 4.937143l147.931429 77.970286h250.733714c12.873143 0 24.502857-2.56 33.170286 5.705143l-78.592 44.068571H265.069714zM859.245714 749.714286H297.106286a92.196571 92.196571 0 0 1-91.721143-92.489143v-378.148572a92.233143 92.233143 0 0 1 91.721143-92.525714h289.499428l183.917715-103.314286a29.805714 29.805714 0 0 1 32.109714 1.828572 30.610286 30.610286 0 0 1 12.178286 29.988571l-12.361143 71.460572h56.795428A92.050286 92.050286 0 0 1 950.857143 279.04V657.188571C950.857143 708.315429 909.824 749.714286 859.245714 749.714286z m0-502.491429H766.537143a29.988571 29.988571 0 0 1-23.076572-10.861714 30.793143 30.793143 0 0 1-6.692571-24.832l7.68-44.251429-135.533714 76.068572a30.756571 30.756571 0 0 1-14.628572 3.913143H297.106286a31.378286 31.378286 0 0 0-31.378286 31.634285V657.225143a31.451429 31.451429 0 0 0 31.378286 31.670857h562.029714c17.261714 0 31.341714-14.116571 31.341714-31.670857v-378.331429h0.109715c0-17.554286-14.08-31.634286-31.341715-31.634285zM359.241143 471.844571c0-25.417143 20.443429-46.043429 45.641143-46.043428s45.604571 20.626286 45.604571 46.08c0 16.420571-8.704 31.634286-22.820571 39.862857a45.275429 45.275429 0 0 1-45.604572 0c-14.116571-8.228571-22.820571-23.442286-22.820571-39.862857z m177.444571 0c0-25.417143 20.406857-46.043429 45.604572-46.043428 25.234286 0 45.641143 20.626286 45.641143 46.08 0 25.417143-20.443429 46.006857-45.641143 46.006857s-45.604571-20.589714-45.604572-46.043429z m177.408 0c0-25.417143 20.443429-46.043429 45.641143-46.043428s45.604571 20.626286 45.604572 46.08c0 25.417143-20.406857 46.006857-45.604572 46.006857-25.234286 0-45.641143-20.589714-45.641143-46.043429z"  horiz-adv-x="1024" />

    
    <glyph glyph-name="zhizhao" unicode="&#58911;" d="M531.370667 776.533333a66.2016 66.2016 0 0 0 66.082133-66.082133v-2.542933a21.333333 21.333333 0 0 1 15.018667-20.053334c14.813867-4.932267 29.269333-10.922667 43.2128-17.954133 8.192-4.352 18.261333-2.901333 24.917333 3.549867l1.792 1.809066a66.2016 66.2016 0 0 0 93.474133 0l27.392-27.392a66.082133 66.082133 0 0 0 0-93.474133l-1.809066-1.809067c-6.468267-6.656-7.901867-16.708267-3.549867-24.900266 6.997333-13.960533 13.0048-28.398933 17.954133-43.2128 2.730667-8.8064 10.820267-14.865067 20.053334-15.018667h2.56A66.2016 66.2016 0 0 0 904.533333 403.370667v-38.741334a66.2016 66.2016 0 0 0-66.082133-66.082133h-2.542933a21.333333 21.333333 0 0 1-20.053334-15.018667c-4.949333-14.813867-10.939733-29.252267-17.954133-43.2128a21.333333 21.333333 0 0 1 3.549867-24.917333l1.809066-1.792a66.082133 66.082133 0 0 0 0-93.474133l-27.392-27.392a66.082133 66.082133 0 0 0-93.474133 0l-1.809067 1.809066a21.469867 21.469867 0 0 1-24.900266 3.549867c-13.960533-7.031467-28.433067-13.038933-43.264-17.954133a21.333333 21.333333 0 0 1-14.967467-20.053334v-2.56A66.2016 66.2016 0 0 0 531.370667-8.533333h-38.741334a66.2016 66.2016 0 0 0-66.082133 66.082133v2.542933a21.333333 21.333333 0 0 1-15.018667 20.053334 327.236267 327.236267 0 0 0-43.2128 17.954133 21.333333 21.333333 0 0 1-24.917333-3.549867l-1.792-1.809066a66.082133 66.082133 0 0 0-93.474133 0l-27.392 27.392a66.082133 66.082133 0 0 0 0 93.474133l1.809066 1.809067c6.468267 6.656 7.901867 16.708267 3.549867 24.900266a327.236267 327.236267 0 0 0-17.954133 43.2128 21.333333 21.333333 0 0 1-20.053334 15.018667h-2.56A66.2016 66.2016 0 0 0 119.466667 364.629333v38.741334a66.2016 66.2016 0 0 0 66.082133 66.082133h2.542933a21.333333 21.333333 0 0 1 20.053334 15.018667c4.949333 14.813867 10.939733 29.252267 17.954133 43.2128a21.333333 21.333333 0 0 1-3.549867 24.917333l-1.809066 1.792a66.082133 66.082133 0 0 0 0 93.474133l27.392 27.392a66.2016 66.2016 0 0 0 93.474133 0l1.809067-1.809066c6.656-6.468267 16.708267-7.901867 24.900266-3.549867a324.096 324.096 0 0 0 43.2128 17.954133 21.333333 21.333333 0 0 1 15.018667 20.053334v2.56A66.2016 66.2016 0 0 0 492.629333 776.533333z m0-45.175466h-38.741334c-11.537067 0-20.906667-9.3696-20.906666-20.906667v-2.423467a66.423467 66.423467 0 0 0-45.960534-62.976c-12.731733-4.1984-25.1392-9.335467-37.12-15.36a66.525867 66.525867 0 0 0-77.2096 11.793067l-1.792 1.809067a20.8896 20.8896 0 0 1-29.5424 0l-27.392-27.392a20.7872 20.7872 0 0 1 0-29.525334l1.809067-1.877333a66.423467 66.423467 0 0 0 11.793067-77.141333c-5.973333-11.9808-11.093333-24.388267-15.240534-37.12a66.423467 66.423467 0 0 0-62.976-45.960534h-2.56c-11.52 0-20.8896-9.3696-20.8896-20.906666v-38.741334c0-11.537067 9.3696-20.906667 20.906667-20.906666h2.423467a66.423467 66.423467 0 0 0 62.976-45.960534c4.1984-12.731733 9.335467-25.1392 15.36-37.12a66.423467 66.423467 0 0 0-11.741867-77.141333l-1.809067-1.877333a20.7872 20.7872 0 0 1 0-29.525334l27.392-27.392a21.333333 21.333333 0 0 1 29.525334 0l1.826133 1.809067a65.792 65.792 0 0 0 46.592 19.1488 67.771733 67.771733 0 0 0 30.549333-7.338667 275.968 275.968 0 0 1 37.12-15.36 66.423467 66.423467 0 0 0 45.960534-62.9248v-2.6112c0-11.537067 9.3696-20.8896 20.906666-20.8896h38.741334c11.537067 0 20.906667 9.352533 20.906666 20.8896v2.56a66.423467 66.423467 0 0 0 45.960534 62.976 272.964267 272.964267 0 0 1 37.12 15.36 66.525867 66.525867 0 0 0 77.2096-11.810133l1.792-1.809067a21.333333 21.333333 0 0 1 29.5424 0l27.392 27.392a20.7872 20.7872 0 0 1 0 29.525334l-1.809067 1.877333a66.423467 66.423467 0 0 0-11.793067 77.141333c5.973333 11.9808 11.093333 24.388267 15.240534 37.12a66.423467 66.423467 0 0 0 62.976 45.960534h2.56c11.52 0 20.8896 9.3696 20.8896 20.906666l0.1024 38.741334c0 11.537067-9.352533 20.906667-20.8896 20.906666h-2.56a66.423467 66.423467 0 0 0-62.976 45.960534 279.074133 279.074133 0 0 1-15.36 37.12 66.423467 66.423467 0 0 0 11.758933 77.141333l1.809067 1.877333a20.7872 20.7872 0 0 1 0 29.525334l-27.392 27.392a20.957867 20.957867 0 0 1-29.525334 0l-1.826133-1.809067a66.525867 66.525867 0 0 0-77.141333-11.793067c-11.9808 5.973333-24.388267 11.093333-37.12 15.240534a66.423467 66.423467 0 0 0-45.960534 62.976v2.56c0 11.52-9.3696 20.8896-20.906666 20.8896zM512 519.560533a135.543467 135.543467 0 1 0 0-271.104 135.543467 135.543467 0 0 0 0 271.086934z m0-45.192533a90.368 90.368 0 1 1 0-180.736 90.368 90.368 0 0 1 0 180.736z"  horiz-adv-x="1024" />

    
    <glyph glyph-name="email" unicode="&#58882;" d="M913.5616 611.4304l-406.8352-234.8544L110.0288 605.696a114.944 114.944 0 0 0 114.688 107.52h574.6176c59.0336 0 107.6736-44.4416 114.176-101.7344z m0.7168-84.1216v-357.4784a114.944 114.944 0 0 0-114.944-114.9952H224.6656a114.944 114.944 0 0 0-114.944 114.9952V521.216l378.88-218.7264c13.0048-7.4752 28.672-6.0928 39.9872 2.2528 0.512 0.2048 0.9728 0.512 1.536 0.8704l384.1536 221.696z"  horiz-adv-x="1024" />

    
    <glyph glyph-name="password" unicode="&#58883;" d="M670.8736 786.2784c-134.7584 0-244.5824-110.4384-244.5824-245.9648 0-16.1792 1.6896-32.3584 5.0176-48.4864l2.2016-11.776-287.232-288.8704v-172.9024h200.704v100.352h93.7472V212.992h92.6208V307.712h31.5904v8.9088l28.8256-9.472a235.52 235.52 0 0 1 75.9808-12.288c134.7584 0 244.5312 110.4384 244.5312 245.9648a243.8656 243.8656 0 0 1-243.4048 245.4016z m91.4944-205.824c0-28.416-23.296-51.8656-51.6096-51.8656a51.968 51.968 0 0 0-51.5584 51.9168c0 28.416 23.296 51.8656 51.5584 51.8656 28.3136 0 51.6096-22.8864 51.6096-51.8656z"  horiz-adv-x="1024" />

    
    <glyph glyph-name="imgcode" unicode="&#58884;" d="M815.5136 718.848c-7.168-0.3072-14.336-0.4096-21.248-0.4096-182.784 0-263.3216 83.712-263.9872 84.48l-18.2272 19.968-18.3296-19.968c-0.768-0.9216-85.76-90.88-285.2352-84.1216l-25.6 0.8704v-379.392c0-99.328 33.1776-244.224 320.1536-355.1232l8.96-3.4304 8.96 3.4304c286.976 110.8992 320.2048 255.7952 320.2048 355.1232v379.392l-25.6-0.8704z m-336.2304-491.0592L287.6928 397.4144l50.8928 41.216 101.888-75.1104s140.6464 145.408 276.48 213.2992l19.3536-21.8624s-169.728-140.544-257.024-327.168z"  horiz-adv-x="1024" />

    
    <glyph glyph-name="address" unicode="&#58885;" d="M512 822.857143c-181.869714 0-329.142857-147.2-329.142857-328.630857a329.142857 329.142857 0 0 1 18.029714-107.593143v-0.475429l0.512-0.987428c5.558857-15.725714 12.288-30.976 20.004572-45.531429l0.146285-0.329143 0.182857-0.329143c3.108571-5.741714 6.4-11.446857 9.837715-17.042285l0.329143-0.475429 0.146285-0.329143 217.965715-376.941714c27.538286-47.506286 96.256-47.506286 123.648 0l218.953142 378.075429 0.987429 1.462857 7.021714 12.288c0.365714 0.512 0.658286 0.987429 0.841143 1.462857l0.146286 0.512 0.182857 0.365714c8.045714 15.030857 15.067429 30.72 20.845714 46.957714l0.475429 0.987429v0.329143A329.142857 329.142857 0 0 1 841.142857 494.226286C841.142857 675.620571 693.723429 822.857143 512 822.857143z m0-474.697143a156.16 156.16 0 0 0-156.306286 156.050286A156.233143 156.233143 0 0 0 512 660.260571a156.233143 156.233143 0 0 0 156.306286-156.050285A156.233143 156.233143 0 0 0 512 348.16z"  horiz-adv-x="1024" />

    
    <glyph glyph-name="baoguo" unicode="&#58886;" d="M776.362667 244.258133l100.130133 99.396267L904.533333 315.835733l-100.130133-99.396266-28.040533-27.818667-84.1216 83.473067 28.040533 27.818666 56.081067-55.637333z m-432.5888 186.88l116.155733-67.584 276.3776 159.010134-120.1664 67.584-272.384-159.0272z m-40.055467 19.8656l276.3776 159.0272-120.1664 67.584-276.3776-159.0272 120.149333-67.584z m-144.213333 35.7888v-242.517333l280.405333-159.044267v242.517334l-280.405333 159.044266z m600.832 0l-280.388267-159.0272v-242.517333l204.288 115.285333 36.0448-27.818666L459.946667 25.6 119.466667 220.416v310.101333L459.9296 725.333333l340.462933-194.816v-174.933333h-40.055466v131.208533z"  horiz-adv-x="1024" />

    
    <glyph glyph-name="bianji" unicode="&#58887;" d="M146.285714 693.467429C146.285714 724.553143 171.483429 749.714286 202.532571 749.714286h281.344a56.246857 56.246857 0 1 0 0-112.530286H258.816v-506.368h506.368V355.84a56.246857 56.246857 0 1 0 112.530286 0v-281.344A56.246857 56.246857 0 0 0 821.467429 18.285714H202.532571C171.446857 18.285714 146.285714 43.483429 146.285714 74.532571V693.467429z m386.998857-367.689143a56.246857 56.246857 0 0 0-79.579428 79.542857l318.281143 318.281143a56.246857 56.246857 0 0 0 79.579428-79.542857l-318.281143-318.281143z"  horiz-adv-x="1024" />

    
    <glyph glyph-name="chilun" unicode="&#58888;" d="M999.02225 490.730047l-111.904535 37.301512a336.262156 336.262156 0 0 1-7.167742 17.187951l52.770668 105.504766a36.496969 36.496969 0 0 1-6.83861 42.128766l-103.237419 103.237419a36.423829 36.423829 0 0 1-42.128766 6.875181l-105.577906-52.770668c-5.668367 2.523338-11.373304 4.900395-17.078241 7.131171L620.521617 869.23068a36.460399 36.460399 0 0 1-34.631894 24.940815H439.938417a36.460399 36.460399 0 0 1-34.631894-24.940815l-37.301512-111.904535c-5.741507-2.194207-11.483014-4.607834-17.151381-7.131171L245.275724 802.965642a36.387259 36.387259 0 0 1-42.128766-6.875181L99.909539 692.853042a36.496969 36.496969 0 0 1-6.875181-42.128766l52.770668-105.541336c-2.523338-5.668367-4.900395-11.409874-7.131171-17.114811l-111.904535-37.338082a36.460399 36.460399 0 0 1-24.940815-34.631893v-145.987877c0-15.725147 10.05678-29.658359 24.940815-34.631894l111.904535-37.301512c2.194207-5.741507 4.607834-11.483014 7.167741-17.187951l-52.807238-105.504766a36.496969 36.496969 0 0 1 6.875181-42.128766l103.237419-103.237419c11.153883-11.153883 28.122414-13.896642 42.128766-6.83861l105.541336 52.734098c5.704937-2.523338 11.409874-4.900395 17.114811-7.131172l37.301512-111.904535a36.460399 36.460399 0 0 1 34.631893-24.940814h146.024447a36.570109 36.570109 0 0 1 34.668464 24.940814l37.264942 111.904535c5.704937 2.194207 11.409874 4.607834 17.114811 7.131172l105.577906-52.734098a36.460399 36.460399 0 0 1 42.128766 6.83861l103.237419 103.237419a36.496969 36.496969 0 0 1 6.83861 42.128766l-52.734098 105.577906c2.523338 5.668367 4.900395 11.373304 7.131172 17.078241l111.904535 37.338082a36.460399 36.460399 0 0 1 24.940814 34.631894V456.061583a36.460399 36.460399 0 0 1-24.940814 34.631894z m-48.053124-154.325862l-103.67626-34.595323a36.423829 36.423829 0 0 1-23.039169-23.039169c-4.680974-13.823501-10.568762-27.939564-17.553653-41.982486-5.083245-10.239631-5.083245-22.307767 0.03657-32.547397l48.930807-97.861613-66.045618-66.045618-97.825043 48.930807a36.533539 36.533539 0 0 1-32.583967 0 328.399583 328.399583 0 0 0-42.019056-17.480512 36.570109 36.570109 0 0 1-23.075739-23.039169l-34.522183-103.712831h-93.40006l-34.595323 103.67626a36.423829 36.423829 0 0 1-23.039169 23.039169 326.241946 326.241946 0 0 0-41.982486 17.553653 36.496969 36.496969 0 0 1-32.547397-0.03657l-97.898183-48.930807-66.009048 66.045618 48.930807 97.825043a36.570109 36.570109 0 0 1 0 32.657108c-6.948321 13.896642-12.799538 28.049274-17.480513 41.945915a36.423829 36.423829 0 0 1-23.039169 23.039169l-103.71283 34.558753v93.40006l103.67626 34.595323a36.423829 36.423829 0 0 1 23.039169 23.039169 324.742572 324.742572 0 0 0 17.517083 41.836206 36.496969 36.496969 0 0 1 0 32.693677L170.160719 659.866803l66.009048 66.009048L334.03138 676.945044c10.276201-5.119815 22.380907-5.192956 32.693677 0 13.823501 6.948321 27.939564 12.799538 41.872776 17.480513a36.423829 36.423829 0 0 1 23.039169 23.039169l34.558753 103.71283h93.40006l34.595323-103.67626a36.423829 36.423829 0 0 1 23.039169-23.039169c13.823501-4.680974 27.939564-10.532192 41.982486-17.553653 10.239631-5.046675 22.307767-5.046675 32.547397 0.03657l97.861613 48.930807 66.045618-66.009048-48.967377-97.861612a36.570109 36.570109 0 0 1 0-32.657108c6.948321-13.896642 12.836108-28.012704 17.553653-41.945916 3.620441-10.861323 12.177846-19.418728 23.039169-23.039169l103.67626-34.558753v-93.40006zM512.895785 565.625631a182.557986 182.557986 0 1 1 0.07314-365.115972 182.557986 182.557986 0 0 1-0.07314 365.115972z m0-292.048894a109.637188 109.637188 0 0 0-109.527478 109.527478 109.637188 109.637188 0 0 0 109.527478 109.527478 109.637188 109.637188 0 0 0 109.527478-109.527478 109.637188 109.637188 0 0 0-109.527478-109.527478z"  horiz-adv-x="1024" />

    
    <glyph glyph-name="dianluban" unicode="&#58889;" d="M512 844.8c123.0848 0 238.7968-47.9232 325.8368-134.9632C924.8768 622.7968 972.8 507.0848 972.8 384c0-21.504-1.5104-42.7776-4.352-63.7184h-151.3728a77.9264 77.9264 0 0 1-72.96 50.7904 77.824 77.824 0 0 1-77.7984-77.7984c0-16.5376 5.1968-31.872 14.0288-44.4928a77.7472 77.7472 0 0 1 136.7296 17.5104h140.5952a458.0864 458.0864 0 0 0-119.8336-208.128c-6.5792-6.5792-7.5776-7.68-14.464-13.824v133.0176a27.008 27.008 0 1 1-54.016 0v-175.7184s-17.024-11.392-32.7424-20.1984v159.8976a27.008 27.008 0 0 1-54.016 0v-185.6c-18.688-7.4752-37.888-13.7216-57.5232-18.6368V460.5696h69.632a77.9776 77.9776 0 0 1 74.8032-56.448 77.8752 77.8752 0 0 1 77.7984 77.824 77.9008 77.9008 0 0 1-77.824 77.7984c-31.232 0-58.2144-18.5344-70.5792-45.1584h-100.8384c-14.8992 0-27.008-12.1088-27.008-27.008v-560.64c-19.4304-2.4576-39.168-3.7376-59.0592-3.7376a457.7792 457.7792 0 0 0-325.8368 134.9632C99.1232 145.2032 51.2 260.9152 51.2 384c0 21.504 1.4848 42.7776 4.352 63.7184h151.3728a77.9264 77.9264 0 0 1 72.96-50.7904 77.824 77.824 0 0 1 65.8432 119.1936 77.7984 77.7984 0 0 1-138.8032-14.4128H66.304a458.0352 458.0352 0 0 0 119.8336 208.128c6.5792 6.5536 7.5776 7.7056 14.464 13.824v-112.7424a27.008 27.008 0 0 1 54.016 0V766.4128s21.248 13.7216 32.768 20.1472V646.912a27.008 27.008 0 0 1 53.9648 0V812.288a455.424 455.424 0 0 0 51.3024 16.9728v-530.0224h-65.2288a78.1312 78.1312 0 0 1-72.96 50.7904 77.9008 77.9008 0 0 1-77.824-77.7984 77.9008 77.9008 0 0 1 77.824-77.7984c33.408 0 61.952 21.1712 72.96 50.7904h92.2368c14.8992 0 26.9824 12.0832 26.9824 27.008V840.2176C468.1216 843.2384 489.9328 844.8 512 844.8z m139.3152-93.6192a77.8752 77.8752 0 0 1-73.3184-103.8336l-86.4256-72.192c-6.144-5.12-9.7024-12.7232-9.7024-20.736v-342.6304l-37.0432-20.0192a77.3376 77.3376 0 0 1-51.3024 19.4048 77.8752 77.8752 0 0 1-77.824-77.824 77.9008 77.9008 0 0 1 77.824-77.7984 77.8752 77.8752 0 0 1 77.0048 88.7296l51.2 27.648c8.704 4.7104 14.1312 13.824 14.1312 23.7568v346.112l76.8 64.128a77.3632 77.3632 0 0 1 38.656-10.3424 77.9008 77.9008 0 0 1 77.7984 77.824 77.8752 77.8752 0 0 1-77.824 77.7728zM393.5232 157.184a23.808 23.808 0 0 0 0-47.616 23.808 23.808 0 0 0 0 47.616z m-139.008 138.88a23.808 23.808 0 0 0 0-47.616 23.808 23.808 0 0 0 0 47.616z m489.6 21.0432a23.808 23.808 0 0 0 0-47.616 23.808 23.808 0 0 0 0 47.616z m-464.2304 181.4272a23.808 23.808 0 0 0 0-47.616 23.8336 23.8336 0 0 0 0 47.616z m489.6256 7.2192a23.808 23.808 0 1 0-23.808-23.808 23.808 23.808 0 0 0 23.808 23.808z m-118.1952 191.488a23.808 23.808 0 1 0-23.808-23.808 23.808 23.808 0 0 0 23.808 23.808z"  horiz-adv-x="1024" />

    
    <glyph glyph-name="dingdan" unicode="&#58890;" d="M588.117333 759.466667c32.989867 0 60.893867-21.623467 71.048534-50.858667h50.244266c69.768533 0 126.856533-57.224533 126.856534-127.146667v-462.848c0-69.922133-57.088-127.146667-126.856534-127.146666H314.589867C244.821333-8.533333 187.733333 48.6912 187.733333 118.613333V581.461333c0 69.922133 57.088 127.146667 126.856534 127.146667h50.244266C374.9888 737.8432 402.8928 759.466667 435.882667 759.466667z m-223.2832-101.717334h-50.244266c-41.864533 0-76.117333-34.338133-76.117334-76.288v-462.848c0-41.949867 34.2528-76.288 76.117334-76.288h394.820266c41.864533 0 76.117333 34.338133 76.117334 76.288V581.461333c0 41.949867-34.2528 76.288-76.117334 76.288h-50.244266c-10.154667-29.252267-38.058667-50.858667-71.048534-50.858666h-152.234666c-32.989867 0-60.893867 21.6064-71.048534 50.858666z m183.1936-426.734933c13.960533 0 25.378133-11.434667 25.378134-25.429333s-11.434667-25.429333-25.378134-25.429334H349.098667c-13.943467 0-25.361067 11.434667-25.361067 25.429334s11.4176 25.429333 25.361067 25.429333z m126.8736 127.146667c13.943467 0 25.361067-11.434667 25.361067-25.429334 0-13.9776-11.4176-25.429333-25.361067-25.429333h-325.802666c-13.943467 0-25.361067 11.451733-25.361067 25.429333 0 13.994667 11.4176 25.429333 25.361067 25.429334z m0 127.163733c13.943467 0 25.361067-11.434667 25.361067-25.429333s-11.4176-25.429333-25.361067-25.429334h-325.802666c-13.943467 0-25.361067 11.434667-25.361067 25.429334s11.4176 25.429333 25.361067 25.429333zM588.117333 708.608h-152.234666c-13.960533 0-25.378133-11.434667-25.378134-25.429333s11.434667-25.429333 25.378134-25.429334h152.234666c13.960533 0 25.378133 11.434667 25.378134 25.429334s-11.434667 25.429333-25.378134 25.429333z"  horiz-adv-x="1024" />

    
    <glyph glyph-name="dingdanchenggong" unicode="&#58891;" d="M731.136 494.957714l-262.217143-233.984-111.908571 139.812572a50.322286 50.322286 0 0 1-89.380572-10.825143 50.834286 50.834286 0 0 1 10.752-52.004572l144.201143-181.284571c8.594286-11.044571 21.357714-18.029714 35.291429-19.236571 12.324571 0.146286 24.137143 4.827429 33.28 13.165714l306.541714 265.362286a50.834286 50.834286 0 0 1 2.925714 69.997714 50.249143 50.249143 0 0 1-69.485714 5.961143v3.035428z m28.891429 325.193143h-26.697143A113.590857 113.590857 0 0 1 626.468571 896h-228.937142a113.590857 113.590857 0 0 1-106.861715-75.849143h-26.697143C158.976 820.150857 73.142857 734.829714 73.142857 630.491429v-568.905143C73.142857-42.678857 159.012571-128 263.936-128h496.128C865.024-128 950.857143-42.678857 950.857143 61.622857V630.528c0 104.301714-85.869714 189.622857-190.793143 189.622857z m-362.496 0h228.937142c20.992 0 38.180571-17.078857 38.180572-37.924571 0-20.845714-17.188571-37.924571-38.180572-37.924572h-228.937142a38.144 38.144 0 0 0-38.180572 37.924572c0 20.845714 17.188571 37.924571 38.180572 37.924571z m477.001142-758.491428c0-62.610286-51.529143-113.810286-114.468571-113.810286H263.936c-62.939429 0-114.468571 51.2-114.468571 113.773714V630.528c0 62.537143 51.529143 113.737143 114.468571 113.737143h26.697143a113.590857 113.590857 0 0 1 106.898286-75.812572h228.937142a113.590857 113.590857 0 0 1 106.861715 75.849143h26.697143c62.976 0 114.505143-51.2 114.505142-113.773714v-568.905143z"  horiz-adv-x="1024" />

    
    <glyph glyph-name="feiji" unicode="&#58892;" d="M825.6 708.266667c-25.6 27.733333-72.533333 21.333333-100.266667-6.4l-136.533333-136.533334-251.733333 93.866667c-23.466667 6.4-49.066667 14.933333-78.933334-14.933333-14.933333-14.933333-46.933333-46.933333 0-93.866667L430.933333 409.6l-110.933333-113.066667-106.666667 25.6c-14.933333 4.266667-25.6 0-34.133333-8.533333-4.266667-4.266667-34.133333-27.733333-12.8-46.933333l121.6-96 96-121.6c14.933333-14.933333 27.733333-6.4 46.933333 12.8 12.8 12.8 8.533333 17.066667 6.4 36.266666l-23.466666 104.533334L524.8 315.733333 665.6 142.933333c46.933333-46.933333 78.933333-14.933333 93.866667 0 29.866667 29.866667 21.333333 55.466667 14.933333 78.933334L682.666667 471.466667l136.533333 136.533333c25.6 27.733333 34.133333 72.533333 6.4 100.266667z m-27.733333-72.533334l-160-160L733.866667 213.333333c4.266667-14.933333 2.133333-34.133333-4.266667-40.533333-17.066667-17.066667-29.866667-8.533333-36.266667-2.133333l-153.6 206.933333-170.666666-170.666667L398.933333 93.866667c-12.8 12.8-83.2 106.666667-85.333333 108.8s-93.866667 70.4-104.533333 81.066666l108.8-29.866666 172.8 170.666666-202.666667 151.466667c-6.4 4.266667-12.8 21.333333 2.133333 36.266667 6.4 6.4 25.6 8.533333 40.533334 4.266666L593.066667 520.533333l162.133333 157.866667c10.666667 10.666667 34.133333 10.666667 42.666667 0 8.533333-8.533333 10.666667-29.866667 0-42.666667z"  horiz-adv-x="1024" />

    
    <glyph glyph-name="file" unicode="&#58893;" d="M495.445333 353.621333c6.161067 2.56 13.124267 2.56 19.285334 0 3.089067-1.262933 5.905067-3.140267 8.260266-5.495466l91.1872-91.1872a25.258667 25.258667 0 1 0-35.754666-35.754667l-48.042667 48.042667v-225.5872a25.258667 25.258667 0 1 0-50.5856 0v225.621333l-48.093867-48.0768a25.275733 25.275733 0 0 0-35.754666 35.754667l91.2384 91.1872c2.3552 2.3552 5.154133 4.232533 8.2432 5.4784z m-5.649066 430.165334c104.823467 0 199.850667-64.170667 241.083733-161.245867C840.6528 603.579733 921.6 504.6272 921.6 385.9968c0-132.232533-102.485333-239.786667-228.4544-239.786667h-26.4704a25.2928 25.2928 0 1 0 0 50.568534h26.453333c98.0992 0 177.902933 84.8896 177.902934 189.218133 0 98.0992-69.137067 179.0976-160.8192 188.3648a25.2928 25.2928 0 0 0-21.265067 16.64c-30.446933 85.060267-110.472533 142.199467-199.150933 142.199467-116.599467 0-211.456-96.221867-211.456-214.493867l-0.648534-19.217067a25.2928 25.2928 0 0 0-25.258666-24.4224c-74.922667 0-133.597867-61.098667-133.597867-139.127466 0-76.731733 60.791467-139.1616 135.543467-139.1616h64.170666a25.258667 25.258667 0 1 0 0-50.568534h-64.170666C151.7568 146.210133 68.266667 231.3216 68.266667 335.940267c0 96.017067 69.5808 175.5648 159.5392 188.023466 2.321067 143.291733 118.954667 259.822933 261.973333 259.822934z"  horiz-adv-x="1024" />

    
    <glyph glyph-name="fukuan" unicode="&#58894;" d="M554.922667 725.333333c58.333867 0 107.281067-41.728 119.159466-97.1776h88.234667c50.2272 0 91.016533-41.250133 91.016533-92.074666v-401.339734C853.333333 84.002133 812.475733 42.666667 762.299733 42.666667H261.700267C211.524267 42.666667 170.666667 84.002133 170.666667 134.741333V601.941333c0 68.027733 54.749867 123.392 121.992533 123.392z m207.377066-143.2064H261.700267c-25.088 0-45.5168-20.667733-45.5168-46.045866v-401.339734c0-25.361067 20.4288-46.0288 45.5168-46.0288h500.599466c25.088 0 45.5168 20.650667 45.5168 45.960534v84.053333H549.051733c-26.914133 0-48.7936 22.135467-48.7936 49.3568v143.445333c0 27.221333 21.879467 49.3568 48.810667 49.3568h258.747733v75.195734c0 25.378133-20.4288 46.045867-45.5168 46.045866z m45.5168-170.513066H573.457067c-13.431467 0-24.405333-11.1104-24.405334-24.6784v-94.088534c0-13.568 10.973867-24.6784 24.405334-24.6784h234.359466v143.445334z m-183.739733-34.7136c20.206933 0 36.590933-16.554667 36.590933-37.0176 0-20.445867-16.384-37.0176-36.590933-37.0176-20.206933 0-36.590933 16.571733-36.590933 37.034666 0 20.4288 16.384 37.000533 36.590933 37.000534z m-69.154133 299.076266H292.6592c-19.456 0-37.819733-7.714133-51.712-21.742933a74.581333 74.581333 0 0 1-19.575467-35.549867 89.668267 89.668267 0 0 0 40.328534 9.557334h361.608533c-3.584 9.557333-9.216 18.432-16.6912 25.992533a72.277333 72.277333 0 0 1-51.694933 21.742933z"  horiz-adv-x="1024" />

    
    <glyph glyph-name="gouwuche" unicode="&#58895;" d="M392.996571 137.874286c33.097143-0.109714 64.731429-13.714286 87.588572-37.668572 23.222857-24.137143 36.205714-56.832 36.205714-90.953143 0-71.021714-55.405714-128.621714-123.794286-128.621714-68.388571 0-123.794286 57.563429-123.794285 128.658286 0 71.021714 55.442286 128.585143 123.794285 128.585143z m421.010286 0c33.097143-0.109714 64.731429-13.714286 87.552-37.668572 23.222857-24.137143 36.278857-56.832 36.278857-90.953143 0-71.021714-55.442286-128.621714-123.830857-128.621714s-123.794286 57.563429-123.794286 128.658286c0 71.021714 55.405714 128.585143 123.794286 128.585143z m-421.010286-77.165715c-27.318857 0-49.517714-23.04-49.517714-51.456s22.162286-51.456 49.517714-51.456c27.355429 0 49.517714 23.04 49.517715 51.456s-22.162286 51.456-49.517715 51.456z m421.010286 0c-27.355429 0-49.517714-23.04-49.517714-51.456a51.492571 51.492571 0 0 1 30.573714-47.542857 48.164571 48.164571 0 0 1 53.979429 11.190857c14.226286 14.994286 18.395429 36.864 10.715428 56.064a49.554286 49.554286 0 0 1-45.714285 31.744zM157.476571 896c43.885714-0.365714 80.822857-34.121143 86.674286-79.250286l12.946286-111.396571c8.301714 2.669714 17.042286 4.096 25.965714 4.132571h645.595429a86.381714 86.381714 0 0 0 63.890285-31.378285c16.932571-19.638857 25.014857-45.824 22.308572-72.045715l-39.387429-373.248c-4.534857-46.482286-42.166857-81.92-87.149714-82.102857v0.036572H322.194286c-44.873143 0.365714-82.285714 35.693714-86.930286 82.066285l-20.224 191.853715a40.521143 40.521143 0 0 0-0.109714 0.804571L170.642286 806.765714a14.08 14.08 0 0 1-13.165715 12.068572h-120.32C16.64 818.834286 0 836.132571 0 857.453714 0 878.701714 16.64 896 37.156571 896h120.32z m770.194286-263.68H283.062857a12.690286 12.690286 0 0 1-9.691428-4.644571 15.579429 15.579429 0 0 1-3.657143-12.105143l39.862857-374.820572a13.897143 13.897143 0 0 1 13.129143-13.129143H888.32a13.860571 13.860571 0 0 1 13.348571 13.129143l39.387429 374.857143a16.64 16.64 0 0 1-3.730286 12.068572 12.690286 12.690286 0 0 1-9.654857 4.608z"  horiz-adv-x="1024" />

    
    <glyph glyph-name="jiantou" unicode="&#58896;" d="M683.593143 402.285714l-362.057143-362.057143a36.571429 36.571429 0 0 1 51.748571-51.712l387.913143 387.913143a36.571429 36.571429 0 0 1 0 51.712L373.284571 816.054857a36.571429 36.571429 0 0 1-51.712-51.748571l362.057143-362.020572z"  horiz-adv-x="1024" />

    
    <glyph glyph-name="jisuanqi" unicode="&#58897;" d="M740.571429 109.714286c46.628571 0 82.285714 35.657143 82.285714 82.285714S787.2 274.285714 740.571429 274.285714 658.285714 238.628571 658.285714 192c0-43.885714 35.657143-82.285714 82.285715-82.285714z m-27.428572 109.714285H768V164.571429h-54.857143v54.857142z m27.428572 109.714286c46.628571 0 82.285714 35.657143 82.285714 82.285714S787.2 493.714286 740.571429 493.714286 658.285714 458.057143 658.285714 411.428571c0-43.885714 35.657143-82.285714 82.285715-82.285714z m-27.428572 109.714286H768V384h-54.857143v54.857143z m-411.428571-329.142857c46.628571 0 82.285714 35.657143 82.285714 82.285714S348.342857 274.285714 301.714286 274.285714 219.428571 238.628571 219.428571 192c0-43.885714 35.657143-82.285714 82.285715-82.285714z m-27.428572 109.714285H329.142857V164.571429H274.285714v54.857142z m27.428572 109.714286c46.628571 0 82.285714 35.657143 82.285714 82.285714S348.342857 493.714286 301.714286 493.714286 219.428571 458.057143 219.428571 411.428571c0-43.885714 35.657143-82.285714 82.285715-82.285714z m-27.428572 109.714286H329.142857V384H274.285714v54.857143zM822.857143 822.857143H219.428571C159.085714 822.857143 109.714286 773.485714 109.714286 713.142857v-658.285714c0-60.342857 49.371429-109.714286 109.714285-109.714286h603.428572c60.342857 0 109.714286 49.371429 109.714286 109.714286V713.142857c0 60.342857-49.371429 109.714286-109.714286 109.714286zM877.714286 54.857143c0-30.171429-24.685714-54.857143-54.857143-54.857143H219.428571c-30.171429 0-54.857143 24.685714-54.857142 54.857143V603.428571H877.714286v-548.571428z m0 603.428571H164.571429V713.142857c0 30.171429 24.685714 54.857143 54.857142 54.857143h603.428572c30.171429 0 54.857143-24.685714 54.857143-54.857143v-54.857143z m-356.571429-548.571428c46.628571 0 82.285714 35.657143 82.285714 82.285714S567.771429 274.285714 521.142857 274.285714 438.857143 238.628571 438.857143 192c0-43.885714 35.657143-82.285714 82.285714-82.285714z m-27.428571 109.714285H548.571429V164.571429h-54.857143v54.857142z m27.428571 109.714286c46.628571 0 82.285714 35.657143 82.285714 82.285714S567.771429 493.714286 521.142857 493.714286 438.857143 458.057143 438.857143 411.428571c0-43.885714 35.657143-82.285714 82.285714-82.285714z m-27.428571 109.714286H548.571429V384h-54.857143v54.857143z"  horiz-adv-x="1024" />

    
    <glyph glyph-name="jixieshou" unicode="&#58898;" d="M865.48427 153.601114A30.207955 30.207955 0 0 0 895.999424 123.725958v-221.874867A30.207955 30.207955 0 0 0 865.48427-127.998464a30.182355 30.182355 0 0 0-30.489554 29.849555V7.681332H189.005284v-105.830241c0-16.486375-13.64478-29.849555-30.489554-29.849555A30.207955 30.207955 0 0 0 128.000576-98.148909v221.874867A30.207955 30.207955 0 0 0 158.51573 153.601114zM811.69875 896a30.207955 30.207955 0 0 0 29.875156-30.515154v-85.657472a30.207955 30.207955 0 0 0-29.875156-30.515154h-178.764531v-72.959891c0-5.247992-0.383999-10.419184-1.023999-15.487976l149.682976-59.852711c2.995196-0.844799 5.964791-1.971197 8.883186-3.430394 25.446362-12.748781 35.942346-44.134334 23.475165-70.092695l-92.620661-192.767711a51.276723 51.276723 0 0 0-40.883139-29.055956l0.128-0.256h-4.863993l-0.460799-0.0256H369.408214v-95.667057A30.207955 30.207955 0 0 0 339.507459 179.201075a30.207955 30.207955 0 0 0-29.875155 30.515154V307.456883A47.743928 47.743928 0 0 0 281.600346 351.181617v13.15838c0 26.36796 20.915169 47.743928 46.745529 47.743929h22.348767c4.556793 0 8.959987-0.691199 13.15838-1.945597h279.449181l53.836719 112.127832-127.743808 51.020723a109.465436 109.465436 0 0 0-48.435127-11.263983c-61.747107 0-111.974232 51.302323-111.974232 114.329428V749.31222H231.219621a30.207955 30.207955 0 0 0-29.900755 30.515154V865.484846A30.207955 30.207955 0 0 0 231.219621 896zM520.959987 712.857875a31.231953 31.231953 0 0 1-30.873554-31.539153c0-17.407974 13.823979-31.539153 30.873554-31.539153a31.231953 31.231953 0 0 1 30.899153 31.539153c0 17.407974-13.823979 31.539153-30.899153 31.539153z"  horiz-adv-x="1024" />

    
    <glyph glyph-name="kaiguan" unicode="&#58899;" d="M153.6 819.2h716.8v-870.4H153.6V819.2z m96.0256-95.0272v-171.904h524.1856V724.1728H249.6256z m58.752-248.6016A55.4496 55.4496 0 0 1 252.416 420.096c0-30.7712 24.8576-55.424 55.936-55.424a55.4496 55.4496 0 0 1 55.9104 55.424 56.1664 56.1664 0 0 1-55.9104 55.4496zM722.944 165.9392a55.4496 55.4496 0 0 1-55.9104-55.4496c0-30.7968 24.832-55.424 55.9104-55.424a55.4496 55.4496 0 0 1 55.936 55.424c0 30.7968-25.4208 55.4496-55.936 55.4496z m-141.2096 0a55.4496 55.4496 0 0 1-55.9104-55.4496c0-30.7968 24.832-55.424 55.9104-55.424a55.4496 55.4496 0 0 1 55.9104 55.424c0 30.7968-25.4208 55.4496-55.9104 55.4496z m-136.1408 0a55.4496 55.4496 0 0 1-55.9104-55.4496c0-30.7968 24.832-55.424 55.9104-55.424a55.4496 55.4496 0 0 1 55.936 55.424c0 30.7968-25.4208 55.4496-55.936 55.4496z m-137.2416 0a55.4496 55.4496 0 0 1-55.936-55.4496c0-30.7968 24.8576-55.424 55.936-55.424a55.4496 55.4496 0 0 1 55.9104 55.424 56.1664 56.1664 0 0 1-55.9104 55.4496z m414.592 155.648a55.4496 55.4496 0 0 1-55.9104-55.424c0-30.7968 24.832-55.4496 55.9104-55.4496a55.4496 55.4496 0 0 1 55.936 55.4496c0 30.7968-25.4208 55.424-55.936 55.424z m-141.2096 0a55.4496 55.4496 0 0 1-55.9104-55.424c0-30.7968 24.832-55.4496 55.9104-55.4496a55.4496 55.4496 0 0 1 55.9104 55.4496c0 30.7968-25.4208 55.424-55.9104 55.424z m-136.1408 0a55.4496 55.4496 0 0 1-55.9104-55.424c0-30.7968 24.832-55.4496 55.9104-55.4496a55.4496 55.4496 0 0 1 55.936 55.4496c0 30.7968-25.4208 55.424-55.936 55.424z m-137.2416 0a55.4496 55.4496 0 0 1-55.936-55.424c0-30.7968 24.8576-55.4496 55.936-55.4496a55.4496 55.4496 0 0 1 55.9104 55.4496 56.1664 56.1664 0 0 1-55.9104 55.424z m414.592 153.984a55.4496 55.4496 0 0 1-55.9104-55.4496c0-30.7712 24.832-55.424 55.9104-55.424a55.4496 55.4496 0 0 1 55.936 55.424c0 30.7968-25.4208 55.4496-55.936 55.4496z m-141.2096 0a55.4496 55.4496 0 0 1-55.9104-55.4496c0-30.7712 24.832-55.424 55.9104-55.424a55.4496 55.4496 0 0 1 55.9104 55.424c0 30.7968-25.4208 55.4496-55.9104 55.4496z m-136.1408 0a55.4496 55.4496 0 0 1-55.9104-55.4496c0-30.7712 24.832-55.424 55.9104-55.424a55.4496 55.4496 0 0 1 55.936 55.424c0 30.7968-25.4208 55.4496-55.936 55.4496z"  horiz-adv-x="1024" />

    
    <glyph glyph-name="laba" unicode="&#58900;" d="M669.476571 722.651429c-26.514286 19.894857-57.417143 24.32-88.356571 13.275428L320.365714 605.549714a93.842286 93.842286 0 0 1-46.372571-35.328 150.235429 150.235429 0 0 1-50.834286 8.813715h-28.708571c-50.834286 0-90.587429-41.984-90.587429-95.012572v-225.353143c0-53.028571 39.753143-95.012571 90.587429-95.012571h28.708571c22.089143 0 37.558857 2.194286 50.834286 8.850286 11.044571-15.469714 26.514286-26.514286 44.178286-33.170286l256.292571-119.296h2.194286c11.081143-4.388571 24.32-6.619429 35.364571-6.619429 19.894857 0 39.789714 6.582857 55.222857 17.664 30.976 22.089143 48.64 57.417143 48.64 99.437715V625.444571c2.194286 39.789714-15.469714 77.348571-46.409143 97.206858zM249.673143 238.811429v-4.461715c-2.194286 0-8.850286-2.194286-24.32-2.194285h-30.902857c-13.275429 0-24.32 13.238857-24.32 28.708571v225.389714c0 15.469714 11.044571 28.708571 24.32 28.708572h28.708571c17.664 0 24.32-2.194286 24.32-2.194286v-262.948571c2.194286-4.388571 2.194286-6.619429 2.194286-11.044572z m402.139428-110.518858c0-17.664-8.850286-35.328-19.894857-44.178285-6.619429-4.388571-15.469714-8.850286-28.708571-4.388572l-256.329143 121.490286h-2.194286c-17.664 6.619429-28.708571 26.514286-28.708571 48.64v247.442286c0 22.089143 13.238857 41.984 28.708571 48.64l260.754286 130.340571c11.008 2.194286 19.858286-2.194286 26.477714-4.425143 13.275429-8.850286 19.894857-24.32 19.894857-44.214857v-499.346286z m152.466286 415.414858c6.582857-4.425143 13.238857-6.656 19.858286-6.656 11.044571 0 19.894857 4.425143 26.514286 13.275428l83.968 114.907429c11.044571 15.433143 6.619429 35.328-6.619429 46.372571-15.469714 11.044571-35.364571 6.656-46.409143-6.582857L795.428571 590.043429c-8.850286-15.433143-6.619429-35.328 8.850286-46.372572z m46.372572-371.2c-11.044571 15.469714-30.902857 17.664-46.372572 6.582857-15.469714-11.008-17.700571-30.902857-6.656-46.372572l83.968-114.907428a31.488 31.488 0 0 1 26.514286-13.238857c6.619429 0 13.275429 2.194286 19.894857 6.619428 15.469714 11.044571 17.664 30.939429 6.619429 46.409143l-83.968 114.907429z m72.923428 227.584h-106.057143a34.011429 34.011429 0 0 1-33.133714-33.170286 34.011429 34.011429 0 0 1 33.133714-33.133714h106.057143a34.011429 34.011429 0 0 1 33.133714 33.133714 32.548571 32.548571 0 0 1-33.133714 33.170286z"  horiz-adv-x="1024" />

    
    <glyph glyph-name="pcbban" unicode="&#58901;" d="M945.792 844.8C960.7168 844.8 972.8 832.7168 972.8 817.792v-867.584c0-14.9248-12.0832-27.008-27.008-27.008H78.208A27.008 27.008 0 0 0 51.2-49.792V817.792C51.2 832.7168 63.2832 844.8 78.208 844.8zM441.7536 250.752H213.1968c-14.8992 0-27.008-12.0832-27.008-27.008v-156.544c0-14.8992 12.1088-27.008 27.008-27.008h228.5568c14.8992 0 27.008 12.1088 27.008 27.008V223.744c0 14.9248-12.1088 27.008-27.008 27.008z m315.0336-114.2784h-156.544a27.008 27.008 0 1 1 0-54.016h156.5696a27.008 27.008 0 0 1 0 54.016z m-342.016 60.2624v-102.5536h-60.288v102.5536h60.288z m-114.304 0v-102.5536H240.2048v102.5536h60.2624z m456.32 54.016h-156.544a27.008 27.008 0 0 1 0-54.016h156.5696a27.008 27.008 0 0 1 0 54.016zM213.1968 727.808c-14.8992 0-27.008-12.1088-27.008-27.008v-343.808a27.008 27.008 0 0 1 54.016 0V700.8c0 14.8992-12.0832 27.008-27.008 27.008z m114.2784 0c-14.8992 0-27.008-12.1088-27.008-27.008v-343.808a27.008 27.008 0 0 1 54.016 0V700.8c0 14.8992-12.0832 27.008-27.008 27.008z m393.3184 0c-14.8992 0-26.9824-12.1088-26.9824-27.008v-62.976h-30.5664v62.976a27.008 27.008 0 0 1-54.016 0v-62.976h-8.96c-14.9248 0-27.0336-12.1088-27.0336-27.0336v-8.9856h-62.976a27.008 27.008 0 0 1 0-54.016h62.976v-30.5408h-62.976a27.008 27.008 0 0 1 0-54.016h62.976v-8.9856c0-14.8992 12.1088-27.008 27.008-27.008h9.0112v-62.976a27.008 27.008 0 0 1 54.016 0v62.976h30.5408v-62.976a27.008 27.008 0 0 1 53.9904 0v62.976h9.0112c14.8992 0 26.9824 12.1088 26.9824 27.008v9.0112h63.0016a27.008 27.008 0 0 1 0 53.9904h-62.976v30.5408h62.976a27.008 27.008 0 0 1 0 54.016h-62.976v8.9856c0 14.9248-12.1088 27.008-27.008 27.008h-9.0112V700.8c0 14.8992-12.0832 27.008-27.008 27.008z m9.0112-144v-102.5536h-102.5536v102.5536h102.5536z"  horiz-adv-x="1024" />

    


  </font>
</defs>
</svg>
